<svg width="24" height="24" viewBox="0 0 24 24" fill="none" xmlns="http://www.w3.org/2000/svg">
    <rect opacity="0.1" width="24" height="24" rx="12" fill="#FF9500"/>
    <path d="M18.8113 15.2995L12.9467 5.54427C12.7436 5.20313 12.3842 5 11.9858 5C11.5873 5 11.228 5.20313 11.0248 5.54427L5.16026 15.2995C4.95192 15.6458 4.94671 16.0781 5.14463 16.4297C5.34255 16.7813 5.71755 17 6.12119 17H17.8504C18.254 17 18.629 16.7813 18.8269 16.4297C19.0248 16.0781 19.0196 15.6458 18.8113 15.2995ZM12.6524 15H11.3191V13.6667H12.6524V15ZM12.6524 12.3333H11.3191V9H12.6524V12.3333Z" fill="#FF9500"/>
</svg>
